<?xml version="1.0" encoding="utf-8"?>
<!-- Generator: Adobe Illustrator 22.1.0, SVG Export Plug-In . SVG Version: 6.00 Build 0)  -->
<svg version="1.1" id="Layer_1" xmlns="http://www.w3.org/2000/svg" xmlns:xlink="http://www.w3.org/1999/xlink" x="0px" y="0px"
	 viewBox="0 0 24 24" style="enable-background:new 0 0 24 24;" xml:space="preserve">
<style type="text/css">
	.st0{fill:url(#SVGID_1_);}
	.st1{fill:url(#SVGID_2_);}
</style>
<title>Artboard 1</title>
<linearGradient id="SVGID_1_" gradientUnits="userSpaceOnUse" x1="9.5866" y1="16.363" x2="14.8318" y2="7.2782">
	<stop  offset="0" style="stop-color:#A849A3"/>
	<stop  offset="1" style="stop-color:#7C3A94"/>
</linearGradient>
<path class="st0" d="M10.7,8.9v1.4h-1V12h1v5h2.1v-5h1.4c0,0,0.1-0.8,0.2-1.7h-1.6V9.2c0-0.2,0.2-0.4,0.4-0.4h1.1V7h-1.5
	C10.6,7,10.7,8.7,10.7,8.9z"/>
<linearGradient id="SVGID_2_" gradientUnits="userSpaceOnUse" x1="5.9016" y1="22.5628" x2="18.0984" y2="1.4372">
	<stop  offset="0" style="stop-color:#A849A3"/>
	<stop  offset="1" style="stop-color:#7C3A94"/>
</linearGradient>
<path class="st1" d="M6,4C4.9,4,4,4.9,4,6v12c0,1.1,0.9,2,2,2h12c1.1,0,2-0.9,2-2V6c0-1.1-0.9-2-2-2H6z M6,2h12c2.2,0,4,1.8,4,4v12
	c0,2.2-1.8,4-4,4H6c-2.2,0-4-1.8-4-4V6C2,3.8,3.8,2,6,2z"/>
</svg>
