<?xml version="1.0" encoding="utf-8"?>
<!-- Generator: Adobe Illustrator 22.1.0, SVG Export Plug-In . SVG Version: 6.00 Build 0)  -->
<svg version="1.1" id="Layer_1" xmlns="http://www.w3.org/2000/svg" xmlns:xlink="http://www.w3.org/1999/xlink" x="0px" y="0px"
	 viewBox="0 0 24 24" style="enable-background:new 0 0 24 24;" xml:space="preserve">
<style type="text/css">
	.st0{fill:url(#SVGID_1_);}
	.st1{fill:url(#SVGID_2_);}
	.st2{fill:url(#SVGID_3_);}
</style>
<title>Artboard 1</title>
<linearGradient id="SVGID_1_" gradientUnits="userSpaceOnUse" x1="8.1798" y1="14.4242" x2="10.5402" y2="10.3358">
	<stop  offset="0" style="stop-color:#A849A8"/>
	<stop  offset="1" style="stop-color:#7C3A94"/>
</linearGradient>
<circle class="st0" cx="9.4" cy="12.4" r="2.4"/>
<linearGradient id="SVGID_2_" gradientUnits="userSpaceOnUse" x1="13.4498" y1="14.4242" x2="15.8102" y2="10.3358">
	<stop  offset="0" style="stop-color:#A849A8"/>
	<stop  offset="1" style="stop-color:#7C3A94"/>
</linearGradient>
<circle class="st1" cx="14.6" cy="12.4" r="2.4"/>
<linearGradient id="SVGID_3_" gradientUnits="userSpaceOnUse" x1="5.9016" y1="22.5628" x2="18.0984" y2="1.4372">
	<stop  offset="0" style="stop-color:#A849A8"/>
	<stop  offset="1" style="stop-color:#7C3A94"/>
</linearGradient>
<path class="st2" d="M6,4C4.9,4,4,4.9,4,6v12c0,1.1,0.9,2,2,2h12c1.1,0,2-0.9,2-2V6c0-1.1-0.9-2-2-2H6z M6,2h12c2.2,0,4,1.8,4,4v12
	c0,2.2-1.8,4-4,4H6c-2.2,0-4-1.8-4-4V6C2,3.8,3.8,2,6,2z"/>
</svg>
