<?xml version="1.0" encoding="utf-8"?>
<!-- Generator: Adobe Illustrator 22.1.0, SVG Export Plug-In . SVG Version: 6.00 Build 0)  -->
<svg version="1.1" id="Layer_1" xmlns="http://www.w3.org/2000/svg" xmlns:xlink="http://www.w3.org/1999/xlink" x="0px" y="0px"
	 viewBox="0 0 24 24" style="enable-background:new 0 0 24 24;" xml:space="preserve">
<style type="text/css">
	.st0{fill:url(#SVGID_1_);}
	.st1{fill:url(#SVGID_2_);}
	.st2{fill:url(#SVGID_3_);}
</style>
<title>Artboard 1</title>
<linearGradient id="SVGID_1_" gradientUnits="userSpaceOnUse" x1="6.2674" y1="21.9291" x2="17.7326" y2="2.0709">
	<stop  offset="0" style="stop-color:#A849A3"/>
	<stop  offset="1" style="stop-color:#7C3A94"/>
</linearGradient>
<path class="st0" d="M16,2H8C4.7,2,2,4.7,2,8v8c0,3.3,2.7,6,6,6h8c3.3,0,6-2.7,6-6V8C22,4.7,19.3,2,16,2z M20,16c0,2.2-1.8,4-4,4H8
	c-2.2,0-4-1.7-4-3.9c0,0,0-0.1,0-0.1V8c0-2.2,1.7-4,3.9-4C7.9,4,8,4,8,4h8c2.2,0,4,1.7,4,3.9c0,0,0,0.1,0,0.1V16z"/>
<linearGradient id="SVGID_2_" gradientUnits="userSpaceOnUse" x1="9.3946" y1="16.4681" x2="14.5673" y2="7.5087">
	<stop  offset="0" style="stop-color:#A849A3"/>
	<stop  offset="1" style="stop-color:#7C3A94"/>
</linearGradient>
<path class="st1" d="M12,6.8c-2.9,0-5.2,2.3-5.2,5.1c0,2.9,2.3,5.2,5.1,5.2c2.9,0,5.2-2.3,5.2-5.1c0,0,0,0,0,0
	C17.2,9.2,14.9,6.8,12,6.8C12,6.8,12,6.8,12,6.8z M12,15.1c-1.7-0.1-3.1-1.6-3-3.3c0.1-1.6,1.4-2.9,3-3l0,0c1.7-0.1,3.2,1.2,3.3,3
	c0.1,1.7-1.2,3.2-3,3.3C12.2,15.1,12.1,15.1,12,15.1z"/>
<linearGradient id="SVGID_3_" gradientUnits="userSpaceOnUse" x1="16.5399" y1="7.9341" x2="17.7801" y2="5.7859">
	<stop  offset="0" style="stop-color:#A849A3"/>
	<stop  offset="1" style="stop-color:#7C3A94"/>
</linearGradient>
<circle class="st2" cx="17.2" cy="6.9" r="1.2"/>
</svg>
