<?xml version="1.0" encoding="utf-8"?>
<!-- Generator: Adobe Illustrator 22.1.0, SVG Export Plug-In . SVG Version: 6.00 Build 0)  -->
<svg version="1.1" id="Layer_1" xmlns="http://www.w3.org/2000/svg" xmlns:xlink="http://www.w3.org/1999/xlink" x="0px" y="0px"
	 viewBox="0 0 24 24" style="enable-background:new 0 0 24 24;" xml:space="preserve">
<style type="text/css">
	.st0{fill:url(#SVGID_1_);}
	.st1{fill:url(#SVGID_2_);}
</style>
<title>Artboard 1</title>
<linearGradient id="SVGID_1_" gradientUnits="userSpaceOnUse" x1="8.4499" y1="15.9863" x2="13.889" y2="6.5655">
	<stop  offset="0" style="stop-color:#A849A3"/>
	<stop  offset="1" style="stop-color:#7C3A94"/>
</linearGradient>
<path class="st0" d="M17,9c-0.4,0.2-0.8,0.3-1.2,0.3c0.4-0.2,0.7-0.6,0.9-1.1c-0.4,0.2-0.8,0.4-1.3,0.5C15,8.3,14.5,8,13.9,8
	c-1.1,0-2,0.8-2,1.9c0,0,0,0,0,0.1c0,0.2,0,0.3,0.1,0.5c-1.6-0.1-3.2-0.8-4.2-2.1C7.5,8.7,7.4,9,7.4,9.4c0,0.7,0.3,1.3,0.9,1.7
	c-0.3,0-0.6-0.1-0.9-0.3l0,0c0,1,0.7,1.8,1.7,2c-0.3,0.1-0.6,0.1-0.9,0c0.3,0.8,1,1.4,1.9,1.5c-0.7,0.6-1.6,0.9-2.6,0.9
	c-0.2,0-0.3,0-0.5,0c0.9,0.6,2,0.9,3.1,0.9c3.2,0.1,5.8-2.4,5.9-5.6c0-0.1,0-0.1,0-0.2V10C16.4,9.7,16.7,9.4,17,9z"/>
<linearGradient id="SVGID_2_" gradientUnits="userSpaceOnUse" x1="5.9016" y1="22.5628" x2="18.0984" y2="1.4372">
	<stop  offset="0" style="stop-color:#A849A3"/>
	<stop  offset="1" style="stop-color:#7C3A94"/>
</linearGradient>
<path class="st1" d="M6,4C4.9,4,4,4.9,4,6v12c0,1.1,0.9,2,2,2h12c1.1,0,2-0.9,2-2V6c0-1.1-0.9-2-2-2H6z M6,2h12c2.2,0,4,1.8,4,4v12
	c0,2.2-1.8,4-4,4H6c-2.2,0-4-1.8-4-4V6C2,3.8,3.8,2,6,2z"/>
</svg>
