<?xml version="1.0" encoding="utf-8"?>
<!-- Generator: Adobe Illustrator 22.1.0, SVG Export Plug-In . SVG Version: 6.00 Build 0)  -->
<svg version="1.1" id="Layer_1" xmlns="http://www.w3.org/2000/svg" xmlns:xlink="http://www.w3.org/1999/xlink" x="0px" y="0px"
	 viewBox="0 0 24 24" style="enable-background:new 0 0 24 24;" xml:space="preserve">
<style type="text/css">
	.st0{fill:url(#SVGID_1_);}
	.st1{fill:url(#SVGID_2_);}
</style>
<title>Artboard 1</title>
<linearGradient id="SVGID_1_" gradientUnits="userSpaceOnUse" x1="9.6245" y1="16.1155" x2="14.3762" y2="7.8853">
	<stop  offset="0" style="stop-color:#A849A3"/>
	<stop  offset="1" style="stop-color:#7C3A94"/>
</linearGradient>
<path class="st0" d="M14.9,8.5H9.1C7.9,8.5,7,9.4,7,10.6v2.9c0,1.1,1,2,2.1,2h5.8c1.1,0,2-0.9,2.1-2v-2.9C17,9.4,16.1,8.5,14.9,8.5
	C14.9,8.5,14.9,8.5,14.9,8.5z M13.5,12.2l-2.7,1.3c-0.1,0-0.1,0-0.1-0.1l0,0v-2.7c0-0.1,0-0.1,0.1-0.1l0,0l2.8,1.4
	C13.6,12,13.6,12.1,13.5,12.2C13.5,12.2,13.5,12.2,13.5,12.2z"/>
<linearGradient id="SVGID_2_" gradientUnits="userSpaceOnUse" x1="5.9016" y1="22.5628" x2="18.0984" y2="1.4372">
	<stop  offset="0" style="stop-color:#A849A3"/>
	<stop  offset="1" style="stop-color:#7C3A94"/>
</linearGradient>
<path class="st1" d="M6,4C4.9,4,4,4.9,4,6v12c0,1.1,0.9,2,2,2h12c1.1,0,2-0.9,2-2V6c0-1.1-0.9-2-2-2H6z M6,2h12c2.2,0,4,1.8,4,4v12
	c0,2.2-1.8,4-4,4H6c-2.2,0-4-1.8-4-4V6C2,3.8,3.8,2,6,2z"/>
</svg>
