<svg id="Layer_1" data-name="Layer 1" xmlns="http://www.w3.org/2000/svg" xmlns:xlink="http://www.w3.org/1999/xlink" viewBox="0 0 140 100"><defs><style>.cls-1{fill:url(#linear-gradient);}</style><linearGradient id="linear-gradient" x1="36.91" y1="-4.75" x2="102.48" y2="108.82" gradientTransform="matrix(1, 0, 0, -1, 0, 102)" gradientUnits="userSpaceOnUse"><stop offset="0" stop-color="#a849a3"/><stop offset="1" stop-color="#7c3a94"/></linearGradient></defs><title>Artboard 1</title><path class="cls-1" d="M110,1.7H30c-16.56,0-29,12.42-29,29v40C1,85.88,14.8,98.3,30,98.3h80c15.18,0,27.6-12.42,29-27.6v-40c0-16.56-12.42-29-29-29ZM90.7,52.76,53.44,70.7c-1.38,0-1.38,0-1.38-1.38h0V32.06c0-1.38,0-1.38,1.38-1.38h0L92.08,50a4.27,4.27,0,0,1-1.38,2.76Z"/></svg>