<svg xmlns="http://www.w3.org/2000/svg" viewBox="0 0 1000 500"><defs><style>.cls-1{isolation:isolate;}.cls-10,.cls-2,.cls-9{fill:none;stroke-miterlimit:10;}.cls-2{stroke:#ddd;stroke-width:2px;}.cls-3{fill:#f4f2ed;}.cls-4,.cls-8{fill:#230753;}.cls-4,.cls-7{opacity:0.1;mix-blend-mode:multiply;}.cls-5{fill:#ddd;}.cls-6{fill:#ff0e00;}.cls-9{stroke:#ff0e00;}.cls-10{stroke:#72727c;}.cls-11{fill:#72727c;}.cls-12{fill:#00b8e2;}.cls-13{fill:#040028;}.cls-14{fill:#fff;}.cls-15{fill:#cfcfcf;}.cls-16{fill:#00add4;}.cls-17{fill:#b5052f;}.cls-18{fill:#ce0636;}</style></defs><title>Artboard 1</title><g class="cls-1"><g id="Layer_1" data-name="Layer 1"><path class="cls-2" d="M141.47,304.59s139.36-143.92,249.27-52.81S568.29,480.46,742.86,440.93s216-227.07,176.92-302.37"/><path class="cls-3" d="M950,120.23,887.07,81.17A11.66,11.66,0,0,0,871,84.93l-11,17.76a11.69,11.69,0,0,0,3.76,16.08l62.94,39.06Z"/><path class="cls-4" d="M867.54,90.9a11.67,11.67,0,0,1,16.07-3.76l62.76,39,3.64-5.86L887.07,81.17A11.66,11.66,0,0,0,871,84.93l-11,17.76a11.46,11.46,0,0,0-.94,1.93Z"/><polygon class="cls-5" points="938.03 139.55 938.02 139.55 926.67 157.84 949.01 162.05 956.04 150.73 956.04 150.73 963.07 139.41 950.01 120.23 938.03 139.55"/><rect class="cls-6" x="945.62" y="149.13" width="26.61" height="6.82" transform="matrix(0.53, -0.85, 0.85, 0.53, 323.57, 886.8)"/><polygon class="cls-5" points="984.74 146.29 968.85 143.03 962.17 153.78 961.83 154.33 954.8 165.65 964.79 178.44 974.76 162.37 974.43 162.14 974.77 162.36 984.74 146.29"/><g class="cls-7"><polygon class="cls-8" points="934.42 145.4 934.42 145.4 946.41 126.08 959.35 145.1 965.23 148.88 965.24 148.87 981.11 152.14 984.74 146.29 968.85 143.03 968.84 143.03 962.95 139.25 950.01 120.23 938.03 139.55 938.02 139.55 926.67 157.84 926.69 157.84 934.42 145.4"/><polygon class="cls-8" points="970.82 167.99 971.13 168.21 971.15 168.2 970.82 167.99"/></g><path class="cls-6" d="M897.17,82.45a3,3,0,0,1,1,4.08l-24.76,39.89a3,3,0,0,1-4.08,1h0a2.94,2.94,0,0,1-.95-4.07L893.1,83.41a3,3,0,0,1,4.07-1Z"/><path class="cls-4" d="M897.17,82.45a2.91,2.91,0,0,0-3,0,2.89,2.89,0,0,1,.79.29,3,3,0,0,1,.95,4.07l-24.76,39.89a2.92,2.92,0,0,1-1.06,1,2.94,2.94,0,0,0,3.29-1.25l24.76-39.89A3,3,0,0,0,897.17,82.45Z"/><path class="cls-9" d="M914,161.67a1,1,0,0,1,.45,1.37l-31.11,50.12a1,1,0,0,1-1.43.2L842.77,189a1,1,0,0,1-.45-1.37l31.11-50.12a1,1,0,0,1,1.43-.2Z"/><line class="cls-9" x1="849.2" y1="193.03" x2="881.29" y2="141.34"/><line class="cls-9" x1="857.34" y1="198.09" x2="889.43" y2="146.4"/><line class="cls-9" x1="865.49" y1="203.14" x2="897.58" y2="151.45"/><line class="cls-9" x1="873.63" y1="208.2" x2="905.72" y2="156.5"/><line class="cls-9" x1="847.28" y1="179.68" x2="888.35" y2="205.16"/><line class="cls-9" x1="852.62" y1="171.08" x2="893.69" y2="196.56"/><line class="cls-9" x1="857.96" y1="162.47" x2="899.03" y2="187.96"/><line class="cls-9" x1="863.3" y1="153.87" x2="904.37" y2="179.36"/><line class="cls-9" x1="868.64" y1="145.27" x2="909.71" y2="170.75"/><line class="cls-9" x1="892.6" y1="148.37" x2="897.84" y2="139.93"/><path class="cls-9" d="M947.84,107.21a1,1,0,0,0,1.43-.2l31.11-50.13a1,1,0,0,0-.45-1.36L940.75,31.19a1,1,0,0,0-1.43.2L908.21,81.52a1,1,0,0,0,.45,1.37Z"/><line class="cls-9" x1="947.17" y1="35.18" x2="915.09" y2="86.88"/><line class="cls-9" x1="955.32" y1="40.24" x2="923.23" y2="91.93"/><line class="cls-9" x1="963.46" y1="45.29" x2="931.38" y2="96.99"/><line class="cls-9" x1="971.61" y1="50.35" x2="939.52" y2="102.04"/><line class="cls-9" x1="934.36" y1="39.39" x2="975.42" y2="64.88"/><line class="cls-9" x1="929.02" y1="47.99" x2="970.08" y2="73.48"/><line class="cls-9" x1="923.67" y1="56.6" x2="964.74" y2="82.08"/><line class="cls-9" x1="918.33" y1="65.2" x2="959.4" y2="90.69"/><line class="cls-9" x1="913" y1="73.8" x2="954.06" y2="99.29"/><line class="cls-9" x1="926.41" y1="93.9" x2="921.18" y2="102.33"/><line class="cls-10" x1="974.77" y1="162.36" x2="986.99" y2="169.94"/><path class="cls-6" d="M987.88,166a3.75,3.75,0,1,1-5.18,1.21A3.77,3.77,0,0,1,987.88,166Z"/><path class="cls-4" d="M987.88,166a3.72,3.72,0,0,0-3-.42,3.93,3.93,0,0,1,.62.3,3.76,3.76,0,0,1,1.21,5.17,3.7,3.7,0,0,1-2.19,1.63,3.75,3.75,0,0,0,3.34-6.68Z"/><path class="cls-11" d="M905.61,136.1a1.28,1.28,0,0,1,.41,1.75h0a1.28,1.28,0,0,1-1.75.41l-21.5-13.35a1.26,1.26,0,0,1-.41-1.74h0a1.27,1.27,0,0,1,1.75-.41Z"/><path class="cls-12" d="M67.33,256.12S43,253.51,45.41,225.78l-10-9.16s-10.55,21,5.5,39.74S74.11,268,74.11,268Z"/><path class="cls-4" d="M35.36,216.62l1.77,1.61c-2.11,7.3-4,21.65,7.29,34.88,10.87,12.69,22.24,13.52,28.46,12.75L74.11,268s-17.18,7.1-33.25-11.64S35.36,216.62,35.36,216.62Z"/><path class="cls-5" d="M126.84,339a30.43,30.43,0,0,0,42.87,3.74l27.2-22.83A30.42,30.42,0,0,0,200.65,277l-56.3-67a30.4,30.4,0,0,0-42.85-3.75L74.29,229.06a30.41,30.41,0,0,0-3.74,42.86Z"/><path class="cls-4" d="M66.33,239.45A30.34,30.34,0,0,0,73,264.34l56.29,67.06a30.44,30.44,0,0,0,42.87,3.74l27.2-22.84a30.17,30.17,0,0,0,8-10.4,30.36,30.36,0,0,1-10.39,18l-27.2,22.83A30.43,30.43,0,0,1,126.84,339L70.55,271.92A30.38,30.38,0,0,1,66.33,239.45Z"/><path class="cls-5" d="M10.78,149.43c-3.25,39.4,29.36,74.25,72.82,77.84s81.33-25.46,84.58-64.86S138.83,88.15,95.37,84.56,14,110,10.78,149.43Z"/><path class="cls-13" d="M24.91,159.91c-3,36.83,25.38,69.24,63.46,72.37s71.43-24.16,74.46-61-25.37-69.23-63.46-72.37S28,123.09,24.91,159.91Z"/><path class="cls-14" d="M152.62,201.27c-13.7,25.77-42.74,44.52-85.8,35-41-9.1-60.51-39.54-57-81.85a79.36,79.36,0,0,1,11.25-34.75S6.07,202,70.94,217.14C130,231,152.62,201.27,152.62,201.27Z"/><path class="cls-5" d="M39.05,224.48l4.43-6c2.61-3.63-.76-10.54-7.54-15.44s-14.4-5.92-17-2.29l-4.11,5.57Z"/><path class="cls-14" d="M14.81,206.36c-2.62,3.63.75,10.55,7.53,15.44s14.41,5.93,17,2.29-.75-10.54-7.54-15.43S17.43,202.73,14.81,206.36Z"/><path class="cls-14" d="M131.75,121.29s-8-10-26.37-13.4c0,0-14.39-3-14.85,2.09,0,0-1.35,5.73,10.45,4.87C101,114.85,119.29,113.24,131.75,121.29Z"/><path class="cls-14" d="M249.66,158.63a17.21,17.21,0,0,0-7,23.31l4.09,7.74a17.2,17.2,0,0,0,23.19,7.37h0a17.21,17.21,0,0,0,7-23.31L272.85,166a17.21,17.21,0,0,0-23.19-7.37Z"/><path class="cls-14" d="M271.59,171.6a5.66,5.66,0,0,0-3.13,7.38h0a5.66,5.66,0,0,0,7.38,3.13l15.78-6.38a5.66,5.66,0,0,0,3.14-7.39h0a5.66,5.66,0,0,0-7.38-3.13Z"/><path class="cls-14" d="M268.23,161.09a6,6,0,0,0-2.13,8.17h0a6,6,0,0,0,8.32,1.35L290.1,160.4a6,6,0,0,0,2.13-8.16h0a6,6,0,0,0-8.32-1.34Z"/><path class="cls-14" d="M257.15,157.38c-2.06,2.75-1.71,6.52.8,8.39h0a6,6,0,0,0,8.27-1.56l11.25-14.94a6,6,0,0,0-.78-8.4h0a6,6,0,0,0-8.29,1.57Z"/><path class="cls-14" d="M245.63,166.43a5.56,5.56,0,0,0,5,6.06h0a5.55,5.55,0,0,0,6.28-4.7l1.95-16.17a5.56,5.56,0,0,0-5-6.07h0a5.56,5.56,0,0,0-6.29,4.7Z"/><path class="cls-14" d="M268.69,180.18a5.57,5.57,0,0,0-5.66,5.45h0a5.55,5.55,0,0,0,5.17,5.9l16.26.71a5.54,5.54,0,0,0,5.67-5.42h0a5.56,5.56,0,0,0-5.16-5.91Z"/><g class="cls-7"><path class="cls-8" d="M268.89,160.66l7.12-13.3c1.19-2.52,1.71-4.42.82-6.36a6,6,0,0,1,.64,8.27l-8.58,11.39Z"/><path class="cls-8" d="M258.35,155.79l-1-6.07c-.11-1.3-.48-3.35-2-3.76,5.25,2.08,3,8.11,2.91,9.83Z"/><path class="cls-8" d="M268.47,195.14a16.65,16.65,0,0,0,5.89-5.19l8.64.38a5.54,5.54,0,0,0,5.68-5.42,5.81,5.81,0,0,0-.59-2.76,5.68,5.68,0,0,1,2,4.67,5.54,5.54,0,0,1-5.67,5.42l-8.64-.38a16.74,16.74,0,0,1-5.89,5.19,17.15,17.15,0,0,1-22.33-5.93A17.1,17.1,0,0,0,268.47,195.14Z"/><path class="cls-8" d="M275.06,170.19h0l13.57-11.7c2.55-2.58,3.64-4.87,2.51-7.41a5.49,5.49,0,0,1,1.09,1.16,6,6,0,0,1-2.13,8.16Z"/><path class="cls-8" d="M283.52,179l-4.08,1.65h0l10.73-6.84c2.77-1.85,4.31-4.48,3.14-7.39a2.34,2.34,0,0,1-.15-.27,5.51,5.51,0,0,1,1.6,2.18,5.66,5.66,0,0,1-3.14,7.39Z"/></g><path class="cls-14" d="M247.38,203s-45.48,32.33-61.6,18.62l1.87-39.14s19.72,4.37,44.42-9.15c0,0-1.41,2.12,8.36,18.89Z"/><path class="cls-4" d="M243.61,197.13l3.77,5.86s-45.48,32.33-61.6,18.62l.25-5.16C202,224.36,236.28,202.1,243.61,197.13Z"/><path class="cls-14" d="M231.76,173.48l.31-.16a1.38,1.38,0,0,0-.06.72C231.93,173.85,231.84,173.66,231.76,173.48Z"/><path class="cls-12" d="M234.76,169.61c-2.91,1.63-3.75,5.67-1.88,9L245,200.35c1.88,3.36,5.76,4.77,8.67,3.17h0c2.92-1.62,3.75-5.67,1.88-9l-12.08-21.71c-1.87-3.36-5.74-4.77-8.66-3.16Z"/><path class="cls-4" d="M250.12,203.71c2.92-1.62,3.75-5.67,1.88-9L239.92,173a7.42,7.42,0,0,0-4.56-3.61c2.84-1.12,6.31.28,8.06,3.41l12.08,21.71c1.87,3.37,1,7.42-1.88,9a5.62,5.62,0,0,1-4.1.44C249.72,203.87,249.92,203.82,250.12,203.71Z"/><path class="cls-14" d="M167.13,175.26s-5.49-2.84-14.47.41S110.72,191,110.72,191a31.12,31.12,0,0,0-16.31,15c-6,11.64-18.15,31.92-18.15,31.92A10.79,10.79,0,0,0,77.71,250c5,6.21,48.77,55,48.77,55s7.91,6.61,7.16,13.76,5.88,6.76,5.88,6.76,4.94-1,5.36,5.3,23.43,37.17,39,19.74,62.82-66,62.82-66,9-8.91-1.49-18.94-12.56-2.69-13.44-14.75c0,0-.17-6.52-4.89-7.37s-2.72-4-2.72-4,3-3.68,0-7,2.86-9.88-9-10.85Z"/><g class="cls-7"><path class="cls-8" d="M224.14,239.5a2.37,2.37,0,0,0-.21.45c-1.07-3.49,2.15-8.68-8.33-9.53l-48-46.42s-5.49-2.84-14.47.41-41.94,15.36-41.94,15.36a31.12,31.12,0,0,0-16.31,15c-6,11.64-18.15,31.92-18.15,31.92a7.37,7.37,0,0,0-.5,1.09,10.61,10.61,0,0,1,0-9.83S88.38,217.63,94.41,206a31.12,31.12,0,0,1,16.31-15s33-12.1,41.94-15.36,14.47-.41,14.47-.41l48,46.41c11.91,1,6.11,7.56,9,10.85S224.14,239.5,224.14,239.5Z"/><path class="cls-8" d="M245.68,274.36c-10.46-10-12.55-2.69-13.44-14.76,0,0-.17-6.51-4.89-7.37s-2.72-4-2.72-4a6.16,6.16,0,0,0,1.08-5.06,6.75,6.75,0,0,0,1.15.31c4.72.85,4.89,7.37,4.89,7.37.88,12.06,3,4.72,13.44,14.75,5.65,5.42,5.62,10.49,4.41,14A17.66,17.66,0,0,0,245.68,274.36Z"/></g><path class="cls-15" d="M140.61,196.81l-3.06,16.1a8.26,8.26,0,0,0,1.58,6.17l29,42c2.63,3.52,6.47,3.45,10.6,2l38.86-16.34a7.09,7.09,0,0,0,2.79-6.07l1.39-10.92"/><path class="cls-15" d="M143.74,256.26c-2.39,2.35-1.65,7,1.64,10.3s7.89,4.12,10.28,1.76,1.64-7-1.64-10.29S146.13,253.91,143.74,256.26Z"/><path class="cls-15" d="M126.93,228c-2,2-1.37,5.82,1.36,8.59s6.58,3.44,8.57,1.48,1.37-5.81-1.37-8.58S128.92,226.09,126.93,228Z"/><path class="cls-4" d="M153.43,259.86c-3.29-3.33-7.89-4.12-10.28-1.77a4,4,0,0,0-.71.93,4.64,4.64,0,0,1,1.3-2.76c2.39-2.35,7-1.56,10.28,1.77,2.9,2.93,3.8,6.86,2.35,9.37A9.32,9.32,0,0,0,153.43,259.86Z"/><path class="cls-4" d="M134.9,231.36c-2.74-2.78-6.57-3.44-8.56-1.48a3.46,3.46,0,0,0-.53.68,4,4,0,0,1,1.12-2.52c2-1.95,5.82-1.29,8.56,1.49,2.45,2.48,3.19,5.81,1.9,7.88A7.86,7.86,0,0,0,134.9,231.36Z"/><path class="cls-5" d="M173.6,246.29c2.36,3.16,5.85,3.2,9.23,2l36.58-14.47c2.74-2,3-6.26.68-9.42l-31.85-42.83c-2.36-3.16-5.63-3.75-9.22-2l-36.59,14.48c-2.75,2-3.05,6.25-.7,9.42Z"/><path class="cls-5" d="M148.58,258.21a4,4,0,0,0,.27,5.67h0a4,4,0,0,0,5.66,0l12-12.5a4,4,0,0,0-.27-5.67h0a4,4,0,0,0-5.67,0Z"/><path class="cls-4" d="M148.58,258.21l11.95-12.49a4,4,0,0,1,5.67,0,4.33,4.33,0,0,1,1,1.34,4,4,0,0,0-5.25.33l-12,12.49a3.9,3.9,0,0,0-.68,4.32c-.14-.1-.28-.2-.42-.32A4,4,0,0,1,148.58,258.21Z"/><path class="cls-13" d="M162.79,214.47a4.14,4.14,0,0,0,5.82.53L191,205.81a4.14,4.14,0,0,0,1.27-5.71l-8.66-11.88c-1.26-1.72-3-1.81-5.84-.53l-22.37,9.19a4.15,4.15,0,0,0-1.27,5.71Z"/><path class="cls-14" d="M216.66,327.32s2.68-4-6.26-13.39-31.14-44.43-72.77-1.62L195,360.16s6.49,3,10.17-1.67S216.66,327.32,216.66,327.32Z"/><path class="cls-12" d="M194.4,318l-13.72-10c-4-2.95-4.7-8.92-1.47-13.34a10.38,10.38,0,0,1,2.47-2.4c13.26,2.85,22.08,14.27,27.34,20.22a11.08,11.08,0,0,1-1.45,2.87C204.33,319.7,198.44,320.9,194.4,318Z"/><path class="cls-4" d="M213.44,334.5s2.68-4-6.26-13.39c-8.54-8.93-31.46-43.16-69.55-8.8h0c41.63-42.81,63.82-7.74,72.77,1.62s6.26,13.39,6.26,13.39.65.61-3.22,7.18Z"/><path class="cls-12" d="M262.29,378.91s-8.66,6.25-28.59-8.69c0,0-14.67-11-28-9.65,0,0-5.88,1.83-5.79-5s14.85-30.28,14.85-30.28,1-2.74,6.85-.3,15.11,5.68,25,16.38c0,0,2.27-3.53,9.78-19.13s17-3.26,17-3.26Z"/><path class="cls-12" d="M262.29,378.91s-8.66,6.25-28.59-8.69c0,0-14.67-11-28-9.65,0,0-5.88,1.83-5.79-5s14.85-30.28,14.85-30.28,1-2.74,6.85-.3,15.11,5.68,25,16.38c0,0,2.27-3.53,9.78-19.13s17-3.26,17-3.26Z"/><g class="cls-7"><path class="cls-8" d="M269.56,324s-6.33-8.27-12.75-2.7c7.44-14.19,16.49-2.35,16.49-2.35l-11,59.92a8.26,8.26,0,0,1-3,1Z"/><path class="cls-8" d="M242.83,346.43c-9.87-10.69-19.14-13.94-25-16.38-2.84-1.18-4.53-1.14-5.51-.78,1.44-2.42,2.41-4,2.41-4s1-2.74,6.85-.3,14.71,5.56,24.34,15.72C243.65,345.13,242.83,346.43,242.83,346.43Z"/></g><path class="cls-5" d="M255.27,363.82c-1.2,7.64,1.34,14.39,5.7,15.09h0c4.34.68,8.86-4.94,10.07-12.58l5.36-33.56c1.2-7.64-1.35-14.38-5.69-15.08h0c-4.36-.69-8.86,4.93-10.08,12.57Z"/><path class="cls-4" d="M273.82,322.25c-4.34-.7-8.85,4.92-10.07,12.56l-5.36,33.56a20.63,20.63,0,0,0,.63,9.69c-3.12-2.12-4.76-7.84-3.75-14.24l5.36-33.56c1.22-7.64,5.72-13.26,10.08-12.57,2.28.37,4.05,2.43,5.06,5.39A4.81,4.81,0,0,0,273.82,322.25Z"/><path class="cls-14" d="M111.75,339.94a17.55,17.55,0,0,0-16.36-18.67l-8.91-.66a17.57,17.57,0,0,0-18.92,16.08h0a17.56,17.56,0,0,0,16.37,18.67l8.9.64a17.53,17.53,0,0,0,18.92-16.06Z"/><path class="cls-14" d="M88.68,351.89a5.79,5.79,0,0,0-4.7-6.7h0a5.78,5.78,0,0,0-6.7,4.69l-3,17.1A5.79,5.79,0,0,0,79,373.69h0A5.8,5.8,0,0,0,85.67,369Z"/><path class="cls-14" d="M99.57,354.65a6.07,6.07,0,0,0-5.91-6.23h0c-3.18.05-5.73,2.95-5.66,6.45l.35,19.07a6.08,6.08,0,0,0,5.9,6.25h0a6.09,6.09,0,0,0,5.67-6.45Z"/><path class="cls-14" d="M108.77,347.1c-1.27-3.28-4.71-5-7.69-3.86h0a6.07,6.07,0,0,0-3.11,8l6.83,17.81a6.1,6.1,0,0,0,7.68,3.87h0a6.08,6.08,0,0,0,3.12-8Z"/><path class="cls-14" d="M107.19,332.25a5.68,5.68,0,0,0-8,1h0a5.68,5.68,0,0,0,.67,8l12.92,10.43a5.66,5.66,0,0,0,7.94-1h0a5.67,5.67,0,0,0-.66-8Z"/><path class="cls-14" d="M82.8,344.74a5.65,5.65,0,0,0-1.63-7.84h0a5.66,5.66,0,0,0-7.9,1.28l-9.41,13.68a5.67,5.67,0,0,0,1.63,7.84h0a5.67,5.67,0,0,0,7.91-1.29Z"/><g class="cls-7"><path class="cls-8" d="M116.89,349.37a5.68,5.68,0,0,0-.66-8l-8.58-6.92a17.54,17.54,0,0,0-9.85-12.81,17.57,17.57,0,0,1,13.73,14.1l8.58,6.93a5.79,5.79,0,0,1-7.28,9l-.17-.14A5.87,5.87,0,0,0,116.89,349.37Z"/><path class="cls-8" d="M108.6,371.62c3-1.15,3.67-3,3.12-8L109.5,349h0c.42.34-.49-.2,0,0l6.1,15.92a6.08,6.08,0,0,1-3.12,8,5.68,5.68,0,0,1-5.57-1A5.2,5.2,0,0,0,108.6,371.62Z"/><path class="cls-8" d="M82.34,368.87,88,355.94l-2.45,13.52a5.74,5.74,0,0,1-9.22,3A7,7,0,0,0,82.34,368.87Z"/><path class="cls-8" d="M71.54,357.62l5.06-3.86-3.51,5.06a5.74,5.74,0,0,1-7.6.88,4,4,0,0,1-.31-.27C66.88,359.37,68.38,359.94,71.54,357.62Z"/><path class="cls-8" d="M96,372.44l3.55-17h0l.33,18.28a6.09,6.09,0,0,1-5.67,6.45,5.42,5.42,0,0,1-3.61-1.33C93.71,378.65,95,377.48,96,372.44Z"/></g><path class="cls-14" d="M102.47,314.18l-27.91,1.91s-7.35-9.32-5.66-46.26l1.84-19.3a20.72,20.72,0,0,1,22.59-18.67h0A20.75,20.75,0,0,1,112,254.46S112.81,279.5,102.47,314.18Z"/><path class="cls-4" d="M102.75,256.21a20.74,20.74,0,0,0-18.68-22.6c-.37,0-.74,0-1.12-.05A20.73,20.73,0,0,1,112,254.46s.79,25-9.55,59.72l-8.93.62C103.52,280.71,102.75,256.21,102.75,256.21Z"/><path class="cls-12" d="M69.81,260.24a10.44,10.44,0,0,1,6.18-2c5.47,0,9.92,4,9.93,9l0,17c0,5-4.42,9.07-9.89,9.07A10.29,10.29,0,0,1,69,290.57a198.67,198.67,0,0,1,0-20.74Z"/><path class="cls-12" d="M68.66,322.6c.28,3.31,3.61,5.75,7.45,5.44L100.86,326c3.84-.31,6.73-3.26,6.46-6.57h0c-.27-3.33-3.61-5.76-7.45-5.46L75.11,316c-3.84.31-6.72,3.26-6.45,6.59Z"/><path class="cls-4" d="M105.2,322.08c-.27-3.32-3.61-5.76-7.45-5.44l-24.76,2A7.61,7.61,0,0,0,69,320.15,7.06,7.06,0,0,1,75.11,316L99.87,314c3.84-.3,7.18,2.13,7.45,5.46a5.8,5.8,0,0,1-2.5,5.09A5.23,5.23,0,0,0,105.2,322.08Z"/><path class="cls-14" d="M298.81,270.28s-36.44-37.81-77.72-13.63c-14.89,8.71-20.47,14.24-20.47,14.24l18.89,35s37.15-9.33,62.74-.32c0,0,5.84,1.58,8.49-2.12Z"/><path class="cls-12" d="M279.14,266.36l-16-5.68c-4.46-1.59-6.75-6.63-5.43-11.54,13.38,1.9,24.6,8.24,31.91,13.48A9.15,9.15,0,0,1,279.14,266.36Z"/><path class="cls-4" d="M223.29,260.62c-11.21,5.17-19.65,7.84-22.67,10.27h0s5.58-5.53,20.47-14.24c41.28-24.18,77.72,13.63,77.72,13.63l-1.5,6.15C290.7,270.25,259.54,243.9,223.29,260.62Z"/><path class="cls-12" d="M347.65,321.07s-8.67,6.25-28.6-8.68c0,0-11.9-6.54-25.25-5.22,0,0-5.75.31-5.65-6.5s8.57-30.89,8.57-30.89,1-2.73,6.86-.29,18.47,3.36,28.33,14.05c0,0,2.27-3.53,9.79-19.14s17-3.25,17-3.25Z"/><path class="cls-4" d="M356.82,265.57s-9.44-12.36-17,3.25-8,17.92-8,17.92c-9.85-10.69-24.29-10.39-30.13-12.84-3.8-1.58-5.54-1-6.3-.37l1.28-3.75s1-2.73,6.86-.29,18.47,3.36,28.33,14.05c0,0,2.27-3.53,9.79-19.14s17-3.25,17-3.25l-11,59.92a6,6,0,0,1-1.13.55Z"/><path class="cls-5" d="M340.62,306c-1.21,7.64,1.34,14.39,5.68,15.09h0c4.37.69,8.88-4.94,10.09-12.59l5.35-33.54c1.22-7.65-1.34-14.4-5.68-15.08h0c-4.36-.7-8.86,4.93-10.08,12.56Z"/><path class="cls-4" d="M358.78,264.8c-4.36-.7-8.86,4.93-10.09,12.56l-5.36,33.56a21.36,21.36,0,0,0,.38,8.8c-2.68-2.44-4-7.8-3.09-13.74L346,272.42c1.22-7.63,5.72-13.26,10.08-12.56,2.5.39,4.38,2.84,5.31,6.28A5,5,0,0,0,358.78,264.8Z"/><path class="cls-5" d="M130.51,229.38a3.38,3.38,0,0,0,.22,4.74h0a3.36,3.36,0,0,0,4.73,0l9.95-10.42a3.32,3.32,0,0,0-.22-4.72h0a3.33,3.33,0,0,0-4.72,0Z"/><path class="cls-4" d="M145.8,221a3.32,3.32,0,0,0-4.72,0l-10,10.41a3.1,3.1,0,0,0-.82,2.06,3.28,3.28,0,0,1,.21-4.12l10-10.41a3.33,3.33,0,0,1,4.72,0,3.41,3.41,0,0,1,1.05,2.67A3.26,3.26,0,0,0,145.8,221Z"/><path class="cls-16" d="M167.21,225.28a5.34,5.34,0,1,0,10.63,1.13l.06-2.07-10.65-.4Z"/><path class="cls-12" d="M167.25,223.94c-.27,2.58,1.88,4.94,4.82,5.26s5.55-1.54,5.82-4.13-1.88-4.94-4.82-5.25S167.53,221.35,167.25,223.94Z"/><path class="cls-17" d="M182.86,238.75a4.18,4.18,0,0,0,8.31.89l.05-1.62-8.32-.32Z"/><path class="cls-18" d="M182.9,237.7a4.21,4.21,0,1,0,4.54-3.22A4,4,0,0,0,182.9,237.7Z"/><path class="cls-17" d="M199.43,231.84a4.18,4.18,0,1,0,8.31.89l0-1.61-8.31-.32Z"/><path class="cls-18" d="M199.47,230.8a4.21,4.21,0,1,0,4.54-3.22A3.94,3.94,0,0,0,199.47,230.8Z"/><path class="cls-16" d="M192.63,215a5.35,5.35,0,0,0,10.64,1.13l.06-2.07-10.65-.41Z"/><path class="cls-12" d="M192.68,213.67c-.27,2.59,1.88,4.94,4.82,5.26s5.54-1.53,5.82-4.12-1.88-4.94-4.83-5.25S193,211.08,192.68,213.67Z"/><path class="cls-16" d="M180.41,219.94a5.35,5.35,0,1,0,10.64,1.13l.06-2.07-10.65-.4Z"/><path class="cls-12" d="M180.46,218.6c-.27,2.58,1.88,4.94,4.83,5.26s5.53-1.53,5.81-4.12-1.88-5-4.82-5.26S180.74,216,180.46,218.6Z"/><path class="cls-14" d="M84.28,113a4,4,0,1,1-4-4A4,4,0,0,1,84.28,113Z"/></g></g></svg>