<svg xmlns="http://www.w3.org/2000/svg" xmlns:xlink="http://www.w3.org/1999/xlink" viewBox="0 0 500 500"><defs><style>.cls-1{isolation:isolate;}.cls-2{fill:#fff;opacity:0.06;}.cls-3{fill:url(#Degradado_sin_nombre_3);}.cls-4{opacity:0.15;mix-blend-mode:multiply;}.cls-5{fill:#230753;}.cls-6{fill:#ddd;}.cls-7{fill:#ff1200;}.cls-8{fill:#f4f2ed;}.cls-9{fill:#040028;}.cls-10{fill:none;stroke:#f4f2ed;stroke-linecap:round;stroke-linejoin:round;stroke-width:0.3px;}</style><linearGradient id="Degradado_sin_nombre_3" x1="487.61" y1="381.94" x2="665.94" y2="272.52" gradientTransform="translate(827.66 465.04) rotate(165.64)" gradientUnits="userSpaceOnUse"><stop offset="0" stop-color="#f1c13b"/><stop offset="1" stop-color="#ff1200"/></linearGradient></defs><title>Artboard 1</title><g class="cls-1"><g id="Layer_1" data-name="Layer 1"><path class="cls-2" d="M78.25,368.61,230,160.71c14.81-17.09,45.45-15,68.08,4.61l5.72,5c22.64,19.63,29,49.66,14.22,66.75L204.46,353.35a3,3,0,0,1-5.11-2.52l1.83-12.65L18.3,500.22a3,3,0,0,1-4.54-3.84L95.4,366.12,82.05,373A3,3,0,0,1,78.25,368.61Z"/><path class="cls-2" d="M100.93,355.17,234.18,175.43c12.92-14.9,38.22-14.33,56.23,1.29l4.55,3.94c18,15.61,22.16,40.58,9.24,55.48L206,337.8a2.53,2.53,0,0,1-4.31-2.22l1.89-10.1L46.72,467.66a2.53,2.53,0,0,1-3.83-3.24l72-111.47-10.67,5.94A2.53,2.53,0,0,1,100.93,355.17Z"/><path class="cls-3" d="M153.41,308.64l84.81-115.81c8.33-9.61,25.38-8.6,37.88,2.24l3.16,2.74c12.51,10.84,15.92,27.57,7.59,37.18l-63.21,64.87a1.93,1.93,0,0,1-3.29-1.64l1-6.2-101.16,90a1.93,1.93,0,0,1-2.91-2.47l45.05-71.46-6.41,3.37A1.93,1.93,0,0,1,153.41,308.64Z"/><g class="cls-4"><path class="cls-5" d="M241.85,198.89c8.33-9.61,25.38-8.6,37.88,2.24l3.16,2.74a37.68,37.68,0,0,1,5.6,6.18,36.83,36.83,0,0,0-9.23-12.24l-3.16-2.74c-12.5-10.84-29.55-11.85-37.88-2.24L154.31,307.42a2.28,2.28,0,0,0,2.9,3.36l4.39-2.31Z"/><path class="cls-5" d="M126.93,376l39-61.83-11.15,5.87-37.3,59.15a2,2,0,0,0,3,2.55Z"/></g><path class="cls-6" d="M289.69,234.87a5.79,5.79,0,0,0,8.1-1.14l6.7-8.89a39.35,39.35,0,0,0-7.74-55.12h0a39.36,39.36,0,0,0-55.12,7.74l-6.71,8.89a5.79,5.79,0,0,0,1.14,8.1Z"/><path class="cls-7" d="M296,233.38,235.85,188a5,5,0,0,1-1-7h0a5,5,0,0,1,7-1l60.18,45.35a5,5,0,0,1,1,7h0A5,5,0,0,1,296,233.38Z"/><rect class="cls-8" x="258.74" y="70.04" width="159.18" height="92.55" transform="translate(41.81 316.5) rotate(-53)"/><path class="cls-7" d="M429.2,20.94s2.37-9.46-6.7-16.3S405,2.69,405,2.69L349.28,24.9l37,27.85,36.95,27.86Z"/><path class="cls-7" d="M336,214a5.64,5.64,0,0,1-7.89,1.11L246.35,153.5a5.64,5.64,0,0,1-1.11-7.9h0a5.65,5.65,0,0,1,7.9-1.11l81.71,61.58A5.64,5.64,0,0,1,336,214Z"/><path class="cls-7" d="M377.56,118.38a32.58,32.58,0,1,1-6.4-45.62A32.56,32.56,0,0,1,377.56,118.38Z"/><rect class="cls-7" x="299.47" y="114.95" width="10.02" height="92.55" transform="translate(-7.53 307.34) rotate(-53)"/><path class="cls-6" d="M307.24,80.68,250,86.94a29,29,0,0,0-19.82,11.73l-34.4,45.65L246,130.43s9.59-2.57,19.84,5.16Z"/><path class="cls-7" d="M198.65,157.29h0a10.12,10.12,0,0,1-2-14.18l34.57-45.88s6.64-8.85,20.57-10.63Z"/><path class="cls-7" d="M280.44,83.61l-35.52,47.13,1.1-.31a19.91,19.91,0,0,1,4.51-.37L286,83Z"/><path class="cls-6" d="M381.15,136.38l9.77,56.78a29.1,29.1,0,0,1-5.82,22.29L350.7,261.1,350.2,209S350,199,339.77,191.29Z"/><path class="cls-7" d="M337.43,261.88h0a10.12,10.12,0,0,0,14.18-2L386.19,214s6.67-8.81,4.55-22.7Z"/><path class="cls-7" d="M384.74,157.27l-35.48,47.08a20.24,20.24,0,0,1,.94,4.6v.92l35.49-47.09Z"/><path class="cls-9" d="M373.9,111.45a25.7,25.7,0,1,1-5.72-32.24A25.71,25.71,0,0,1,373.9,111.45Z"/><path class="cls-10" d="M355.82,79.1a17.05,17.05,0,0,1,1.83.49"/><path class="cls-10" d="M339.48,82.66a20.17,20.17,0,0,1,13.56-4"/></g></g></svg>